<svg xmlns="http://www.w3.org/2000/svg" width="1170" height="355" viewBox="0 0 1170 355">
<defs><mask id="gap17"><rect width="1170" height="520" fill="white"/><polygon points="793.0,87.0 953.0,87.0 953.0,293.0 988.1,293.0" fill="black"/></mask></defs>
<g mask="url(#gap17)"><g transform="translate(40,40)"><g transform="translate(0.000000,275.000000) scale(0.100000,-0.100000)" fill="#15161A"><path d="M8120 2269 c0 -23 920 -1296 950 -1314 7 -4 10 217 10 659 l0 666
-480 0 c-348 0 -480 -3 -480 -11z"/><path d="M1500 2070 l0 -200 865 0 c956 0 898 4 950 -64 14 -18 31 -58 37 -89
10 -47 9 -61 -6 -101 -23 -60 -58 -101 -110 -129 l-41 -22 -847 -3 -848 -3 0
-625 0 -625 903 3 902 3 74 27 c168 61 293 185 357 353 21 55 27 94 31 180 9
190 -31 302 -146 414 l-66 63 62 63 c107 109 148 215 147 385 -1 96 -5 128
-27 195 -45 135 -137 246 -255 308 -132 70 -91 67 -1086 67 l-896 0 0 -200z
m1737 -1045 c81 -41 123 -109 123 -201 0 -85 -51 -164 -125 -195 -23 -10 -185
-13 -672 -15 l-643 -2 0 219 0 219 633 0 633 0 51 -25z"/><path d="M4522 2256 c-97 -24 -199 -83 -277 -160 -79 -79 -115 -136 -151 -242
-96 -286 34 -605 300 -734 141 -68 162 -70 815 -70 l578 0 44 -23 c53 -28 98
-90 109 -148 18 -98 -33 -203 -118 -242 -47 -22 -47 -22 -902 -23 l-855 0 -3
-203 -2 -202 897 3 898 3 70 24 c189 63 327 197 393 383 34 97 43 280 18 378
-46 177 -155 315 -315 395 -122 61 -92 58 -776 64 l-630 6 -42 24 c-24 14 -55
42 -70 64 -24 35 -28 50 -28 113 0 64 3 77 30 115 17 23 50 53 74 66 l44 23
864 0 863 0 0 200 0 200 -887 -1 c-685 -1 -900 -4 -941 -13z"/><path d="M6732 1243 l3 -1028 217 -3 218 -2 2 709 3 710 226 -222 c285 -280
473 -476 817 -847 150 -162 287 -306 304 -320 l31 -25 264 -3 c163 -2 263 0
263 6 0 24 -293 365 -590 686 -443 482 -1278 1332 -1327 1352 -24 10 -87 14
-233 14 l-200 0 2 -1027z"/></g></g></g>
<polygon points="827.0,87.0 947.0,87.0 947.0,213.7" fill="#552BD7"/></svg>